
<svg width="96" height="96" xmlns="http://www.w3.org/2000/svg" fill="none">
 <defs>
  <linearGradient gradientUnits="userSpaceOnUse" gradientTransform="matrix(48.00000762939453,0,0,-47.86933898925781,-14660.3837890625,21195.93359375)" y2="545.57" x2="203.8" y1="544.7" x1="202.93" id="svg_9">
   <stop stop-color="#00aee9" offset="0"/>
   <stop stop-color="#69fabd" offset="1"/>
  </linearGradient>
 </defs>
 <g>
  <title>ONE</title>
  <path id="svg_1" fill="#F9FAFB" d="m138,186c25.9574,0 47,-21.0426 47,-47c0,-25.9574 -21.0426,-47 -47,-47c-25.9574,0 -47,21.0426 -47,47c0,25.9574 21.0426,47 47,47z"/>
  <g stroke="null">

   <title stroke="null">harmony-one-logo</title>
   <path stroke="null" fill="url(#svg_9)" transform="translate(-60 -60)" d="m121.64533,83.98579a10.34933,10.34933 0 0 0 -10.35733,10.32267l0,11.44533c-1.06667,0.072 -2.15733,0.11733 -3.288,0.11733s-2.216,0.04533 -3.288,0.10933l0,-11.672a10.35733,10.35733 0 0 0 -20.712,0l0,27.35467a10.35733,10.35733 0 0 0 20.712,0l0,-11.44533c1.06667,-0.072 2.15733,-0.11733 3.288,-0.11733s2.216,-0.04533 3.288,-0.10933l0,11.672a10.35733,10.35733 0 0 0 20.712,0l0,-27.35467a10.34933,10.34933 0 0 0 -10.35467,-10.32267zm-27.29067,4.22933a6.10933,6.10933 0 0 1 6.112,6.09333l0,12.12a34.83734,34.83734 0 0 0 -8.8,2.488a16,16 0 0 0 -3.41333,2.03733l0,-16.64533a6.10933,6.10933 0 0 1 6.10133,-6.09333zm6.112,33.448a6.112,6.112 0 1 1 -12.224,0l0,-2.744c0,-2.424 1.92,-4.72 5.13867,-6.14933a30.13334,30.13334 0 0 1 7.08533,-2.072l0,10.96533zm21.17867,6.09333a6.10933,6.10933 0 0 1 -6.112,-6.09333l0,-12.12a34.83734,34.83734 0 0 0 8.8,-2.488a16,16 0 0 0 3.41333,-2.03733l0,16.64533a6.10933,6.10933 0 0 1 -6.10133,6.09333zm0.97333,-24.57067a30.13334,30.13334 0 0 1 -7.08533,2.072l0,-10.94933a6.112,6.112 0 1 1 12.224,0l0,2.744c0,2.41333 -1.92,4.70933 -5.13867,6.13333z" id="svg_8"/>
  </g>
 </g>
</svg>