
<svg width="256" height="257" xmlns="http://www.w3.org/2000/svg" fill="none">
 <defs>
  <clipPath id="clip0">
   <rect y="0.604" width="256" height="256" fill="white" id="svg_1"/>
  </clipPath>
  <linearGradient id="paint0_linear" x1="0.45876" y1="0.05208" x2="0.65057" y2="0.92135">
   <stop stop-color="#00AEE9"/>
   <stop offset="1" stop-color="#00E8A2"/>
  </linearGradient>
 </defs>
 <g>
  <title>cWONE</title>
  <g clip-path="url(#clip0)" id="svg_2">
   <circle cx="128" cy="128.604" r="126.175" fill="#F9FAFB" id="svg_3" transform="rotate(-5.6583 128 128.604)"/>
   <path d="m208.101,226.092c-19.281,15.842 -42.827,25.611 -67.661,28.072c-33.3,3.299 -66.5476,-6.765 -92.4276,-27.979c-25.88,-21.214 -42.2728,-51.84 -45.57215,-85.141c-2.46045,-24.833 2.49831,-49.8384 14.24925,-71.8535c11.7508,-22.0152 29.7661,-40.0514 51.7676,-51.8278c22.0014,-11.77652 47.0009,-16.76434 71.8369,-14.33276c24.837,2.43158 48.394,12.17336 67.694,27.99336l-25.451,31.0484c-13.159,-10.7864 -29.221,-17.4285 -46.155,-19.0864c-16.933,-1.6579 -33.978,1.7429 -48.9795,9.7723c-15.001,8.0295 -27.2841,20.3269 -35.2961,35.3372c-8.0119,15.0102 -11.3929,32.0592 -9.7153,48.9912c2.2495,22.705 13.4264,43.586 31.0719,58.05c17.6455,14.464 40.314,21.327 63.019,19.077c16.932,-1.678 32.986,-8.338 46.132,-19.14l25.487,31.019z" fill="url(#paint0_linear)" id="svg_4"/>
   <path d="m128,232.604c57.438,0 104,-46.562 104,-104c0,-57.4376 -46.562,-104 -104,-104c-57.4376,0 -104,46.5624 -104,104c0,57.438 46.5624,104 104,104z" fill="white" id="svg_5"/>
  </g>
  <g stroke="null">

   <title fill="#283947" stroke="null">harmony-one-logo</title>
   <path stroke="null" fill="#283947" transform="translate(-60 -60)" d="m216.02164,148.00001a18.75817,18.75817 0 0 0 -18.77267,18.70983l0,20.74467c-1.93333,0.1305 -3.91017,0.21267 -5.9595,0.21267s-4.0165,0.08217 -5.9595,0.19817l0,-21.1555a18.77267,18.77267 0 0 0 -37.5405,0l0,49.58033a18.77267,18.77267 0 0 0 37.5405,0l0,-20.74467c1.93333,-0.1305 3.91017,-0.21267 5.9595,-0.21267s4.0165,-0.08217 5.9595,-0.19817l0,21.1555a18.77267,18.77267 0 0 0 37.5405,0l0,-49.58033a18.75817,18.75817 0 0 0 -18.76783,-18.70983zm-49.46433,7.66567a11.07317,11.07317 0 0 1 11.078,11.04417l0,21.9675a63.14267,63.14267 0 0 0 -15.95,4.5095a29,29 0 0 0 -6.18667,3.69267l0,-30.16967a11.07317,11.07317 0 0 1 11.05867,-11.04417zm11.078,60.6245a11.078,11.078 0 1 1 -22.156,0l0,-4.9735c0,-4.3935 3.48,-8.555 9.31383,-11.14567a54.61667,54.61667 0 0 1 12.84217,-3.7555l0,19.87467zm38.38633,11.04417a11.07317,11.07317 0 0 1 -11.078,-11.04417l0,-21.9675a63.14267,63.14267 0 0 0 15.95,-4.5095a29,29 0 0 0 6.18667,-3.69267l0,30.16967a11.07317,11.07317 0 0 1 -11.05867,11.04417zm1.76417,-44.53433a54.61667,54.61667 0 0 1 -12.84217,3.7555l0,-19.84567a11.078,11.078 0 1 1 22.156,0l0,4.9735c0,4.37417 -3.48,8.53567 -9.31383,11.11667z" id="svg_6"/>
  </g>
 </g>
</svg>